<svg xmlns="http://www.w3.org/2000/svg" version="1.1" xlink="http://www.w3.org/1999/xlink" xmlns:svgjs="http://svgjs.com/svgjs" width="100%" height="100%" viewBox="5.124919414520264 23.124000549316406 89.51408386230469 59.40199279785156"><g fill="url(#SvgjsLinearGradient1000)">
            <path d="M94.639 51.14c0-7.056-8.252-14.221-20.25-14.767-.091-.004-.181-.006-.271-.011l.037-.037-5.776-.469c.112-.706.269-1.687.374-2.301.05-.285.065-.593.063-.895.181-1.061-.095-2.495-.095-2.495h-.016c-.363-3.917-7.06-7.041-15.266-7.041-7.167 0-13.18 2.382-14.831 5.595l-2.15 2.961-4.771-.879c-.7-.165-1.429-.299-2.188-.403h-.003a26.412 26.412 0 0 0-3.547-.234c-10.116 0-20.839 5.169-20.824 11.761a8.382 8.382 0 0 0 .481 2.836c.397 1.657 1.295 3.092 2.691 4.279 1.91 1.625 4.658 2.714 8.168 3.239l.016.002c.169.025.339.049.51.07l4.327.605c-.506.697-1.292 1.77-1.921 2.587-.517.67-1.322 2.242-1.991 3.627-.49.77-.882 1.605-1.17 2.512v.002a12.247 12.247 0 0 0-.55 3.312c-.063 1.944.168 3.723.642 5.339.619 2.491 1.825 4.697 3.583 6.514 3.543 3.66 9.15 5.677 15.786 5.677 6.395 0 12.004-1.463 16.221-4.23 1.927-.994 4.881-3.328 8.006-8.79l.088-.152c.531-.917 2.614-8.115 2.859-8.969.41.111 2.466.669 3.816.939.551.109 2.02.344 4.361.692 1.314.239 2.755.459 4.282.651.244.031.499.059.774.084l.732.163-.28-.125c.589.043 1.181.066 1.769.066h.001c4.225 0 8.217-1.103 11.242-3.104 2.382-1.577 3.941-3.585 4.544-5.792.34-.892.527-1.835.527-2.819zm-3.649.357a5.45 5.45 0 0 1-.42 1.64c-2.343 3.899-9.489 6.018-18.365 4.491-7.294-1.258-11.999-4.119-13.61-7.729 1.733.112 4.45.294 5.78.412.782.068 1.644.164 2.451.278-1.633.854-4.812 2.504-4.812 2.504s-.063.189.391.297c.452.109 1.34.195 2.075 0 .554-.146 3.342-1.538 4.771-2.318.252.078.448.159.569.243.216.152.391.313.516.477.394 1.067 1.831 1.813 3.498 1.813 1.988 0 3.605-1.069 3.605-2.383v-.152a1.58 1.58 0 0 0 .122-.596v-1.715c0-.414-.164-.802-.455-1.138.31-.107.573-.199.732-.26.627-.238 5.945-2.961 6.421-3.285.279-.191.647-.404.869-.649 3.835 2.376 6.104 5.494 5.862 8.07zm-32.719-2.458c1.369.088 4.7.305 6.216.44 1.071.095 2.444.253 3.569.457l-.313.17a48.72 48.72 0 0 1-.689.364 51.744 51.744 0 0 0-2.666-.311c-1.352-.119-4.134-.305-5.863-.417a7.198 7.198 0 0 1-.254-.703zm12.28 1.971c.371 1.023 1.778 1.786 3.459 1.786 1.466 0 2.723-.582 3.266-1.41-.132 1.154-1.622 2.066-3.44 2.066-1.611 0-2.993-.709-3.36-1.724l-.011-.02a2.402 2.402 0 0 0-.557-.518 2.017 2.017 0 0 0-.474-.221c.365-.202.613-.352.66-.403.218.163.361.317.457.444zm10.639-7.996c-2.335 1.081-5.815 3.006-5.815 3.006s-.541-.043-1.146 0c-.606.043-.976.095-1.103.302-.023.04-.078.117-.151.213-1.11.221-1.993.787-2.348 1.509-.87-.006-3.243-.049-6.945-.343-2.167-.171-4.614-.54-5.647-.704.003-.032.004-.065.009-.098.514-4.227 5.953-7.179 13.224-7.179 1.164 0 2.376.074 3.604.219 3.103.366 5.927 1.247 8.318 2.417-.536.097-1.202.289-2 .658zM38.413 78.09c-8.295-.003-15.275-3.451-17.938-8.592a9.91 9.91 0 0 1-.86-4.262c.099-4.537 4.84-9.499 10.799-12.227-.015.294.042.614.247.887.453.604 5.293 6.385 5.595 6.837.031.046.104.148.211.297-.956.493-1.569 1.259-1.569 2.119v2.218h.001c.004.082.015.162.03.241v.401l.003.076h.004c.121 1.467 1.932 2.604 4.17 2.604.989 0 1.894-.224 2.607-.598.709.869 3.613 4.29 4.07 4.861.484.604 1.754 2.329 2.662 1.996.907-.332.907-1.482.695-2.298-.211-.816-3.599-5.234-4.506-6.385a9.55 9.55 0 0 0-1.351-1.374v-1.087a1.87 1.87 0 0 0-.123-.661c-.002-.771-.5-1.465-1.292-1.957.544-1.265 2.809-5.955 3.27-6.384.292-.272.675-.488.953-.624l5.062 1.056a1.89 1.89 0 0 0 1.452-.292c3.288 2.5 5.099 5.974 5.099 9.783 0 .419-.036.838-.104 1.256-1.674 6.84-11.975 12.111-19.187 12.109zm1.998-46.181c0-1.575 1.339-3.029 3.772-4.095a17.16 17.16 0 0 1 2.855-.939c.617.517 2.767 1.992 3.404 2.424a60.328 60.328 0 0 1 1.706 1.219v.001c-.817.305-1.37.88-1.37 1.541v.444c-.053.14-.082.286-.082.436v1.432l.01.076h.01c.071.417.353.798.803 1.093-.062.182-.14.386-.244.619a2.91 2.91 0 0 1-.547.807c-5.364-.547-9.51-2.555-10.316-5.055l-.001-.003zm26.133.212c-.591 1.55-2.411 2.895-5.01 3.797-.05-.429-.404-.789-.723-1.128-.352-.376-3.003-2.37-3.729-2.768a24.748 24.748 0 0 1-1.092-.648c-.19-.295-.5-.548-.887-.736-.103-.178-.215-.393-.227-.494-.026-.188-.236-.351-.519-.375-.28-.023-1.666-.399-2.088-.61-.313-.157-2.79-1.73-4.051-2.535a29.038 29.038 0 0 1 5.262-.462c7.583 0 13.072 3.433 13.072 5.747.003.071-.003.142-.008.212zm-14.209 4.963c.084-.502.395-1.025.621-1.482.101-.199.226-.352.346-.466.063.004.124.006.187.006 1.217 0 2.241-.526 2.584-1.248v.243l.003.027c.003.025.006.049.006.074 0 .026-.003.05-.006.075l-.004.05c-.101.875-1.246 1.561-2.608 1.561-.057 0-.111-.003-.166-.005l-.05-.003-.023.023a1.758 1.758 0 0 0-.355.483c-.041.082-.084.166-.129.251-.069.134-.139.273-.207.415-.067-.002-.135-.001-.199-.004zm.538-.34c.045-.086.09-.171.13-.253.077-.155.179-.295.303-.419.052.003.104.005.157.005 1.404 0 2.592-.709 2.749-1.628h.012l-.001-.092.003-.026a.907.907 0 0 0 .006-.091c0-.03-.003-.06-.006-.09v-.161c.61.405 2.96 1.958 3.728 2.399-1.849.464-3.98.727-6.28.727-.329 0-.651-.011-.976-.021.057-.119.115-.235.175-.35zm-2.027-2.995c.127.378.437.711.868.958v.001c-.02.174-.063.397-.15.685-.414-.283-.663-.642-.708-1.029l-.01-.036v-.579zM39.029 67.99c.835 0 1.613-.163 2.264-.44.151.199.263.347.316.414-.691.358-1.563.575-2.503.575-2.104 0-3.868-1.081-4.012-2.429.533 1.09 2.091 1.88 3.935 1.88zm1.99-9.796c-.428.639-1.054 1.388-1.619 2.027-.002-.002-.453-.123-.967-.486s-4.235-4.568-4.718-5.264-1.451-1.656-1.785-1.947a.809.809 0 0 0-.142-.092c1.982-.769 4.064-1.285 6.132-1.452.616 1.057 2.122 1.937 2.75 2.067l2.51.523c-.406 1.183-1.159 3.133-2.161 4.624zm11.632-3.404l-.045-.034-.045.034c-.398.29-.897.398-1.379.299l-5.086-1.063-.025-.005-.023.011c-.289.14-.699.368-1.013.661-.503.47-2.766 5.199-3.298 6.421-.058-.034-.113-.069-.175-.1a2.05 2.05 0 0 1 .106-.357c.341-.855 2.872-6.154 3.384-6.633.313-.293.726-.521 1.002-.654l5.123 1.072a1.826 1.826 0 0 0 1.448-.314c3.283 2.478 5.181 5.925 5.206 9.866-.219-3.586-2.037-6.832-5.18-9.204zm14.032-23.16c-.403-2.598-6.325-5.619-13.2-5.619-1.968 0-3.808.174-5.456.49l-.541-.345s-.588-.094-.609 0c-.023.094-.141.329 0 .563a.165.165 0 0 0 .023.026c-3.749.919-6.268 2.627-6.599 4.696a2.81 2.81 0 0 1-.035-.42c0-3.366 5.839-5.864 13.245-5.864 7.401 0 13.24 3.353 13.24 5.864 0 .206-.026.409-.068.609zM8.38 43.364c-.493-4.237 5.67-8.376 14.334-9.628a28.155 28.155 0 0 1 4.021-.299c3.264 0 6.095.658 8.135 1.78-.21-.004-.364.01-.364.01s-3.631.744-4.862 1.172c-1.229.429-3.86 1.402-4.404 1.689-.543.285-1.087.085-1.887.199-.801.114-.756.394-1.169.559l-.014.005c-.502.169-.931.42-1.239.727-.408.238-.853.478-1.268.625-.972.344-5.063 1.889-5.863 2.145-.8.258-3.576 1.23-4.062 1.516-.486.287-.486.601 0 .601s3.832-1.087 4.862-1.374c1.03-.285 5.23-1.772 5.79-2.001v1.24c0 .211.049.415.136.607v.2c0 1.212 1.491 2.199 3.323 2.199.827 0 1.621-.204 2.235-.573l-.032-.053.033.051c.34-.204.606-.445.792-.718.072-.034.146-.062.219-.083a.84.84 0 0 1 .24-.027c.611 0 1.792.351 2.833.661.498.148.967.288 1.355.385.64.16 1.356.311 1.944.428-2.353 1.323-5.481 2.319-9.176 2.748-7.578.88-13.791-.746-15.704-3.913a4.04 4.04 0 0 1-.208-.878zm29.845-3.879l.005.067c-.112 1.307-.788 2.593-1.941 3.761 0 0-5.321-.979-6.073-1.184-.731-.2-2.716-.624-3.079-.868a1.664 1.664 0 0 0-.204-.502v-.007c0-.029-.005-.057-.007-.086l.003-.011-.003.01a1.617 1.617 0 0 0-.383-.917c.082-.022.147-.043.185-.059.543-.228 3.004-1.03 3.976-1.344.919-.297 4.89-1.617 5.31-2.389 1.265.968 2.053 2.17 2.211 3.529zm-4.556 5.808a45.926 45.926 0 0 1-2.107-.461 32.67 32.67 0 0 1-1.348-.383c-1.051-.312-2.244-.667-2.876-.667-.114 0-.207.011-.283.033-.087.026-.175.06-.26.102l-.019.009-.011.018a2.306 2.306 0 0 1-.755.689l-.002.001c-.591.355-1.357.552-2.157.552-1.71 0-3.104-.879-3.166-1.974.514.741 1.654 1.258 2.978 1.258.855 0 1.63-.216 2.212-.567l-.002.004.004-.005c.332-.2.601-.444.785-.718.077-.037.161-.071.251-.097.696-.206 3.131.684 4.5 1.025 1.366.342 3.107.649 3.11.649-.271.183-.557.36-.854.532zM22.508 32.786c8.787-1.27 15.216 1.612 15.709 5.857l.008.092c-.321-1.106-1.07-2.119-2.181-2.959-.041-.339-.414-.478-.786-.53a10.06 10.06 0 0 0-.383-.219c-2.112-1.14-4.927-1.742-8.141-1.742-1.302 0-2.662.101-4.042.3C13.946 34.85 7.728 39.06 8.23 43.381c.007.065.02.129.03.192a4.093 4.093 0 0 1-.255-1.006c-.493-4.245 5.601-8.496 14.503-9.781zM37.876 50.15c.573 1.027 2.077 1.947 2.742 2.087l2.806.584c-.047.152-.113.36-.196.605l-2.528-.527c-.597-.124-2.103-1.015-2.673-2.036l-.023-.042-.048.005c-2.107.165-4.281.691-6.385 1.52-.4-.125-.909-.143-.909-.143-.083.109-.184.345-.228.624a25.147 25.147 0 0 0-5.031 3.017c-3.707 2.87-5.871 6.293-5.938 9.39-.015.698.042 1.387.167 2.062a10.043 10.043 0 0 1-.31-2.708c.14-6.521 9.543-13.731 18.554-14.438zm47.344-6.837c.095-.14.135-.288.079-.449-.174-.498-.542-.519-.542-.519s-.45-.147-1.318-.029c-2.444-1.226-5.35-2.149-8.549-2.527a30.956 30.956 0 0 0-3.622-.219c-6.976 0-12.282 2.709-13.252 6.666l.01-.125c.573-4.703 7.26-8.232 17.035-7.077S91.78 46.3 91.362 50.758a5.47 5.47 0 0 1-.328 1.422c.048-.219.085-.441.106-.668.247-2.62-2.045-5.789-5.92-8.199zm-68.208 8.89a36.816 36.816 0 0 1-.509-.07l-.016-.003c-5.403-.807-8.949-2.952-10.323-6.155 1.626 2.85 5.109 4.747 10.072 5.488v.001l.016.002c.17.024.34.049.514.071l5.068.708-.415.574-4.407-.616zm72.474 7.423c-3.002 1.985-6.965 3.08-11.16 3.08-.73 0-1.47-.036-2.198-.104l-.006-.001a23.329 23.329 0 0 1-.772-.083 78.452 78.452 0 0 1-4.275-.651c-2.343-.35-3.81-.582-4.358-.692-1.491-.298-3.852-.948-3.876-.955l-.072-.021-.021.072c-.022.08-2.321 8.067-2.865 9.007l-.088.153c-3.106 5.429-6.035 7.745-7.945 8.73l-.014.007c-4.191 2.753-9.771 4.207-16.137 4.207-6.595 0-12.162-2.001-15.677-5.631a14.025 14.025 0 0 1-2.491-3.511c3.179 5.745 10.103 8.692 18.064 8.692 6.771 0 12.325-1.643 16.296-4.25l.007-.002c4.433-2.288 7.563-8.013 8.122-8.979.559-.964 2.895-9.089 2.895-9.089s2.386.661 3.91.966c.655.131 2.501.413 4.393.696a79.15 79.15 0 0 0 4.309.657c.261.033.52.058.78.083h.007c7.353.685 14.305-2.093 17.068-6.569-.792 1.575-2.108 3.003-3.896 4.188z"></path>
        </g><defs><linearGradient gradientUnits="userSpaceOnUse" id="SvgjsLinearGradient1000" x1="12.652942180633556" y1="90.05401611328125" x2="87.11098051071167" y2="15.595977783203129"><stop stop-color="#4d4d4d" offset="0.05"></stop><stop stop-color="#0d0d0d" offset="0.95"></stop></linearGradient></defs></svg>