 <svg xmlns="http://www.w3.org/2000/svg" version="1.1" xlink="http://www.w3.org/1999/xlink" xmlns:svgjs="http://svgjs.com/svgjs" width="100%" height="100%" viewBox="1.590000033378601 -34.689998626708984 348.4831848144531 35.09000015258789"><g fill="#0d0d0d">
            <path d="M13.36 -34.52C13.24 -34.4 13.18 -34.26 13.18 -34.1L13.18 -23.84C13.18 -23.74 13.15 -23.68 13.08 -23.67C13.02 -23.65 12.95 -23.69 12.89 -23.79C11.8 -25.18 10.29 -25.87 8.38 -25.87C6.1 -25.87 4.41 -25.17 3.32 -23.76C2.23 -22.36 1.65 -20.24 1.59 -17.4L1.59 -12.74C1.59 -10.16 1.62 -8.54 1.69 -7.88C1.78 -5.14 2.34 -3.07 3.35 -1.69C4.35 -0.3 6 0.4 8.28 0.4C10.26 0.4 11.8 -0.26 12.89 -1.59C12.95 -1.69 13.02 -1.72 13.08 -1.69C13.15 -1.65 13.18 -1.59 13.18 -1.49L13.18 -0.59C13.18 -0.43 13.24 -0.29 13.36 -0.17C13.47 -0.06 13.61 0 13.78 0L19.58 0C19.74 0 19.88 -0.06 20 -0.17C20.11 -0.29 20.17 -0.43 20.17 -0.59L20.17 -34.1C20.17 -34.26 20.11 -34.4 20 -34.52C19.88 -34.63 19.74 -34.69 19.58 -34.69L13.78 -34.69C13.61 -34.69 13.47 -34.63 13.36 -34.52ZM12.46 -6.27C12.05 -5.79 11.51 -5.55 10.85 -5.55C10.16 -5.55 9.62 -5.79 9.24 -6.27C8.86 -6.75 8.64 -7.4 8.57 -8.23C8.54 -9.22 8.52 -10.74 8.52 -12.79C8.52 -14.84 8.56 -16.34 8.62 -17.3C8.69 -18.12 8.92 -18.77 9.32 -19.23C9.71 -19.69 10.24 -19.92 10.9 -19.92C11.56 -19.92 12.08 -19.68 12.46 -19.2C12.84 -18.73 13.07 -18.07 13.13 -17.25L13.18 -16.36L13.18 -8.23C13.12 -7.4 12.88 -6.75 12.46 -6.27Z M47.38 -25.28C46.79 -25.64 46.08 -25.82 45.25 -25.82C43.37 -25.82 41.96 -24.8 41.04 -22.75C40.97 -22.65 40.91 -22.61 40.86 -22.62C40.81 -22.64 40.79 -22.72 40.79 -22.85L40.79 -24.88C40.79 -25.04 40.73 -25.19 40.62 -25.3C40.5 -25.42 40.36 -25.47 40.19 -25.47L34.4 -25.47C34.23 -25.47 34.09 -25.42 33.97 -25.3C33.86 -25.19 33.8 -25.05 33.8 -24.88L33.8 -0.59C33.8 -0.43 33.86 -0.29 33.97 -0.17C34.09 -0.06 34.23 0 34.4 0L40.19 0C40.36 0 40.5 -0.06 40.62 -0.17C40.73 -0.29 40.79 -0.43 40.79 -0.59L40.79 -14.27C40.79 -15.26 41.04 -16.15 41.53 -16.93C42.03 -17.7 42.64 -18.17 43.37 -18.34C43.73 -18.47 44.16 -18.54 44.65 -18.54C45.18 -18.54 45.63 -18.47 45.99 -18.34C46.42 -18.24 46.65 -18.37 46.69 -18.73L47.63 -24.53C47.69 -24.86 47.61 -25.11 47.38 -25.28Z M61.65 -1.81C63.31 -0.34 65.62 0.4 68.59 0.4C71.57 0.4 73.88 -0.34 75.53 -1.81C77.18 -3.28 78.01 -5.32 78.01 -7.93L78.01 -17.54C78.01 -20.06 77.17 -22.07 75.51 -23.59C73.84 -25.11 71.53 -25.87 68.59 -25.87C65.65 -25.87 63.35 -25.11 61.68 -23.59C60.01 -22.07 59.18 -20.06 59.18 -17.54L59.18 -7.93C59.18 -5.32 60 -3.28 61.65 -1.81ZM70.35 -6.39C69.91 -5.86 69.32 -5.6 68.59 -5.6C67.87 -5.6 67.28 -5.86 66.83 -6.39C66.39 -6.92 66.16 -7.62 66.16 -8.47L66.16 -17.05C66.16 -17.88 66.39 -18.55 66.83 -19.08C67.28 -19.61 67.87 -19.87 68.59 -19.87C69.32 -19.87 69.91 -19.61 70.35 -19.08C70.8 -18.55 71.02 -17.88 71.02 -17.05L71.02 -8.47C71.02 -7.62 70.8 -6.92 70.35 -6.39Z M108.24 -23.64C107.12 -25.13 105.45 -25.87 103.24 -25.87C101.32 -25.87 99.83 -25.24 98.78 -23.99C98.61 -23.82 98.49 -23.74 98.43 -23.74C98.36 -23.74 98.33 -23.79 98.33 -23.89L98.33 -24.88C98.33 -25.04 98.27 -25.19 98.16 -25.3C98.04 -25.42 97.9 -25.47 97.73 -25.47L91.94 -25.47C91.77 -25.47 91.63 -25.42 91.51 -25.3C91.4 -25.19 91.34 -25.05 91.34 -24.88L91.34 -0.59C91.34 -0.43 91.4 -0.29 91.51 -0.17C91.63 -0.06 91.77 0 91.94 0L97.73 0C97.9 0 98.04 -0.06 98.16 -0.17C98.27 -0.29 98.33 -0.43 98.33 -0.59L98.33 -16.75C98.33 -17.74 98.54 -18.51 98.95 -19.06C99.36 -19.6 99.95 -19.87 100.71 -19.87C101.44 -19.87 101.99 -19.61 102.37 -19.08C102.75 -18.55 102.94 -17.81 102.94 -16.85L102.94 -0.59C102.94 -0.43 103 -0.29 103.11 -0.17C103.23 -0.06 103.37 0 103.53 0L109.33 0C109.5 0 109.64 -0.06 109.75 -0.17C109.87 -0.29 109.93 -0.43 109.93 -0.59L109.93 -17.4C109.93 -20.07 109.36 -22.15 108.24 -23.64Z M141.62 -10.63C141.74 -10.75 141.79 -10.89 141.79 -11.05L141.79 -17.54C141.79 -20.06 140.96 -22.07 139.29 -23.59C137.62 -25.11 135.33 -25.87 132.43 -25.87C129.52 -25.87 127.23 -25.11 125.56 -23.59C123.89 -22.07 123.06 -20.06 123.06 -17.54L123.06 -7.88C123.06 -5.3 123.89 -3.28 125.54 -1.81C127.19 -0.34 129.49 0.4 132.43 0.4C135.24 0.4 137.42 -0.26 138.99 -1.56C140.56 -2.87 141.45 -4.69 141.65 -7.04C141.68 -7.4 141.5 -7.62 141.1 -7.68L135.45 -8.28C135.09 -8.34 134.86 -8.16 134.76 -7.73C134.62 -7.1 134.35 -6.58 133.94 -6.17C133.53 -5.76 133.02 -5.55 132.43 -5.55C131.73 -5.55 131.16 -5.82 130.72 -6.37C130.27 -6.91 130.05 -7.6 130.05 -8.43L130.05 -10.21C130.05 -10.37 130.13 -10.46 130.3 -10.46L141.2 -10.46C141.36 -10.46 141.51 -10.52 141.62 -10.63ZM130.72 -19.08C131.16 -19.61 131.73 -19.87 132.43 -19.87C133.12 -19.87 133.69 -19.61 134.14 -19.08C134.58 -18.55 134.81 -17.88 134.81 -17.05L134.81 -15.31C134.81 -15.15 134.72 -15.07 134.56 -15.07L130.3 -15.07C130.13 -15.07 130.05 -15.15 130.05 -15.31L130.05 -17.05C130.05 -17.88 130.27 -18.55 130.72 -19.08Z M202.95 -23.59C201.83 -25.11 200.14 -25.87 197.9 -25.87C196.91 -25.87 195.92 -25.66 194.95 -25.25C193.97 -24.84 193.14 -24.1 192.45 -23.05C192.31 -22.85 192.2 -22.75 192.1 -22.75L192 -22.8C190.88 -24.85 189.03 -25.87 186.45 -25.87C185.72 -25.87 184.96 -25.74 184.17 -25.47C183.38 -25.21 182.65 -24.75 181.99 -24.09C181.92 -24.02 181.86 -24 181.79 -24.04C181.72 -24.07 181.69 -24.14 181.69 -24.24L181.69 -24.88C181.69 -25.04 181.63 -25.19 181.52 -25.3C181.4 -25.42 181.26 -25.47 181.1 -25.47L175.3 -25.47C175.13 -25.47 174.99 -25.42 174.88 -25.3C174.76 -25.19 174.7 -25.05 174.7 -24.88L174.7 -0.59C174.7 -0.43 174.76 -0.29 174.88 -0.17C174.99 -0.06 175.13 0 175.3 0L181.1 0C181.26 0 181.4 -0.06 181.52 -0.17C181.63 -0.29 181.69 -0.43 181.69 -0.59L181.69 -16.75C181.69 -17.74 181.9 -18.51 182.31 -19.06C182.72 -19.6 183.29 -19.87 184.02 -19.87C184.68 -19.87 185.21 -19.6 185.61 -19.06C186 -18.51 186.2 -17.74 186.2 -16.75L186.2 -0.59C186.2 -0.43 186.26 -0.29 186.37 -0.17C186.49 -0.06 186.63 0 186.8 0L192.55 0C192.71 0 192.85 -0.06 192.97 -0.17C193.08 -0.29 193.14 -0.43 193.14 -0.59L193.14 -16.75C193.14 -17.74 193.35 -18.51 193.76 -19.06C194.17 -19.6 194.74 -19.87 195.47 -19.87C196.13 -19.87 196.66 -19.6 197.06 -19.06C197.45 -18.51 197.65 -17.74 197.65 -16.75L197.65 -0.59C197.65 -0.43 197.71 -0.29 197.82 -0.17C197.94 -0.06 198.08 0 198.24 0L204.04 0C204.21 0 204.35 -0.06 204.46 -0.17C204.58 -0.29 204.64 -0.43 204.64 -0.59L204.64 -17.2C204.64 -19.94 204.08 -22.07 202.95 -23.59Z M234.13 -23.59C232.38 -25.11 230.1 -25.87 227.29 -25.87C224.64 -25.87 222.46 -25.15 220.75 -23.72C219.03 -22.28 218.09 -20.35 217.92 -17.94C217.92 -17.54 218.12 -17.35 218.52 -17.35L224.46 -17.3C224.86 -17.3 225.07 -17.5 225.11 -17.89C225.21 -18.52 225.45 -19.01 225.83 -19.35C226.21 -19.7 226.68 -19.87 227.24 -19.87C227.96 -19.87 228.57 -19.58 229.05 -19.01C229.53 -18.43 229.77 -17.69 229.77 -16.8L229.77 -15.56C229.77 -15.4 229.68 -15.31 229.52 -15.31L227.24 -15.31C224.03 -15.31 221.58 -14.74 219.88 -13.58C218.18 -12.42 217.33 -10.31 217.33 -7.24C217.33 -4.26 218.03 -2.25 219.43 -1.19C220.84 -0.13 222.5 0.4 224.41 0.4C226.66 0.36 228.34 -0.36 229.47 -1.78C229.53 -1.88 229.6 -1.92 229.67 -1.88C229.73 -1.85 229.77 -1.78 229.77 -1.69L229.77 -0.59C229.77 -0.43 229.82 -0.29 229.94 -0.17C230.05 -0.06 230.2 0 230.36 0L236.16 0C236.32 0 236.46 -0.06 236.58 -0.17C236.7 -0.29 236.75 -0.43 236.75 -0.59L236.75 -17.59C236.75 -20.07 235.88 -22.07 234.13 -23.59ZM228.85 -5.77C228.24 -5.26 227.54 -5.01 226.74 -5.01C226.08 -5.01 225.54 -5.22 225.13 -5.65C224.72 -6.08 224.51 -6.71 224.51 -7.53C224.51 -8.43 224.78 -9.13 225.33 -9.64C225.87 -10.15 226.59 -10.41 227.49 -10.41L229.52 -10.41C229.68 -10.41 229.77 -10.33 229.77 -10.16L229.77 -7.83C229.77 -6.97 229.46 -6.29 228.85 -5.77Z M251.89 -1.66C253.56 -0.32 255.8 0.35 258.61 0.35C261.39 0.35 263.61 -0.32 265.28 -1.66C266.94 -3 267.78 -4.81 267.78 -7.09C267.78 -8.61 267.42 -9.87 266.69 -10.88C265.96 -11.89 265.09 -12.66 264.09 -13.21C263.08 -13.75 261.86 -14.29 260.44 -14.82C259.06 -15.35 258.02 -15.83 257.35 -16.28C256.67 -16.73 256.33 -17.35 256.33 -18.14C256.33 -18.73 256.53 -19.25 256.93 -19.7C257.32 -20.15 257.87 -20.37 258.56 -20.37C259.22 -20.37 259.76 -20.16 260.17 -19.75C260.58 -19.34 260.79 -18.8 260.79 -18.14L260.79 -17.64C260.79 -17.51 260.85 -17.4 260.96 -17.3C261.08 -17.2 261.22 -17.15 261.39 -17.15L266.69 -17.15C266.85 -17.15 266.99 -17.21 267.11 -17.32C267.23 -17.44 267.28 -17.58 267.28 -17.74C267.28 -20.22 266.48 -22.19 264.88 -23.64C263.28 -25.09 261.1 -25.82 258.36 -25.82C255.72 -25.82 253.6 -25.13 252.02 -23.74C250.43 -22.35 249.64 -20.45 249.64 -18.04C249.64 -15.83 250.26 -14.13 251.5 -12.96C252.74 -11.79 254.27 -10.87 256.08 -10.21C256.38 -10.11 256.92 -9.92 257.69 -9.64C258.47 -9.36 259.17 -9.01 259.8 -8.6C260.43 -8.19 260.74 -7.62 260.74 -6.89C260.74 -6.29 260.55 -5.81 260.17 -5.43C259.79 -5.05 259.27 -4.86 258.61 -4.86C257.88 -4.86 257.27 -5.08 256.78 -5.53C256.28 -5.97 256.03 -6.54 256.03 -7.24L256.03 -7.63C256.03 -7.73 255.98 -7.81 255.86 -7.88C255.74 -7.95 255.6 -7.98 255.44 -7.98L249.99 -7.98C249.82 -7.98 249.68 -7.92 249.57 -7.81C249.45 -7.69 249.39 -7.55 249.39 -7.38L249.39 -7.04C249.39 -4.79 250.23 -3 251.89 -1.66Z M291.84 -20.74C291.96 -20.86 292.01 -21 292.01 -21.16L292.01 -24.88C292.01 -25.04 291.96 -25.19 291.84 -25.3C291.73 -25.42 291.58 -25.47 291.42 -25.47L288.64 -25.47C288.48 -25.47 288.4 -25.56 288.4 -25.72L288.4 -31.22C288.4 -31.39 288.34 -31.53 288.22 -31.64C288.11 -31.76 287.97 -31.82 287.8 -31.82L282.25 -31.82C282.09 -31.82 281.95 -31.76 281.83 -31.64C281.71 -31.53 281.66 -31.39 281.66 -31.22L281.66 -25.72C281.66 -25.56 281.57 -25.47 281.41 -25.47L279.77 -25.47C279.61 -25.47 279.47 -25.42 279.35 -25.3C279.24 -25.19 279.18 -25.05 279.18 -24.88L279.18 -21.16C279.18 -21 279.24 -20.86 279.35 -20.74C279.47 -20.63 279.61 -20.57 279.77 -20.57L281.41 -20.57C281.57 -20.57 281.66 -20.49 281.66 -20.32L281.66 -5.85C281.66 -3.57 282.27 -2.02 283.49 -1.21C284.71 -0.4 286.53 0 288.94 0L290.92 0C291.09 0 291.23 -0.06 291.35 -0.17C291.46 -0.29 291.52 -0.43 291.52 -0.59L291.52 -5.45C291.52 -5.62 291.46 -5.76 291.35 -5.87C291.23
             -5.99 291.09 -6.05 290.92 -6.05L290.58 -6.05C289.85 -6.01 289.3 -6.18 288.94 -6.54C288.58 -6.91 288.4 -7.57 288.4 -8.52L288.4 -20.32C288.4 -20.49 288.48 -20.57 288.64 -20.57L291.42 -20.57C291.58 -20.57 291.73 -20.63 291.84 -20.74Z M322.97 -10.63C323.08 -10.75 323.14 -10.89 323.14 -11.05L323.14 -17.54C323.14 -20.06 322.3 -22.07 320.64 -23.59C318.97 -25.11 316.68 -25.87 313.77 -25.87C310.86 -25.87 308.58 -25.11 306.91 -23.59C305.24 -22.07 304.4 -20.06 304.4 -17.54L304.4 -7.88C304.4 -5.3 305.23 -3.28 306.88 -1.81C308.53 -0.34 310.83 0.4 313.77 0.4C316.58 0.4 318.77 -0.26 320.34 -1.56C321.91 -2.87 322.79 -4.69 322.99 -7.04C323.02 -7.4 322.84 -7.62 322.44 -7.68L316.79 -8.28C316.43 -8.34 316.2 -8.16 316.1 -7.73C315.97 -7.1 315.7 -6.58 315.28 -6.17C314.87 -5.76 314.37 -5.55 313.77 -5.55C313.08 -5.55 312.51 -5.82 312.06 -6.37C311.62 -6.91 311.39 -7.6 311.39 -8.43L311.39 -10.21C311.39 -10.37 311.48 -10.46 311.64 -10.46L322.54 -10.46C322.71 -10.46 322.85 -10.52 322.97 -10.63ZM312.06 -19.08C312.51 -19.61 313.08 -19.87 313.77 -19.87C314.47 -19.87 315.04 -19.61 315.48 -19.08C315.93 -18.55 316.15 -17.88 316.15 -17.05L316.15 -15.31C316.15 -15.15 316.07 -15.07 315.9 -15.07L311.64 -15.07C311.48 -15.07 311.39 -15.15 311.39 -15.31L311.39 -17.05C311.39 -17.88 311.62 -18.55 312.06 -19.08Z M349.8 -25.28C349.21 -25.64 348.5 -25.82 347.67 -25.82C345.79 -25.82 344.38 -24.8 343.46 -22.75C343.39 -22.65 343.33 -22.61 343.29 -22.62C343.24 -22.64 343.21 -22.72 343.21 -22.85L343.21 -24.88C343.21 -25.04 343.15 -25.19 343.04 -25.3C342.92 -25.42 342.78 -25.47 342.62 -25.47L336.82 -25.47C336.65 -25.47 336.51 -25.42 336.4 -25.3C336.28 -25.19 336.22 -25.05 336.22 -24.88L336.22 -0.59C336.22 -0.43 336.28 -0.29 336.4 -0.17C336.51 -0.06 336.65 0 336.82 0L342.62 0C342.78 0 342.92 -0.06 343.04 -0.17C343.15 -0.29 343.21 -0.43 343.21 -0.59L343.21 -14.27C343.21 -15.26 343.46 -16.15 343.95 -16.93C344.45 -17.7 345.06 -18.17 345.79 -18.34C346.15 -18.47 346.58 -18.54 347.08 -18.54C347.61 -18.54 348.05 -18.47 348.41 -18.34C348.84 -18.24 349.08 -18.37 349.11 -18.73L350.05 -24.53C350.12 -24.86 350.03 -25.11 349.8 -25.28Z"></path></g></svg>